<svg xmlns="http://www.w3.org/2000/svg" width="24.5" height="24" viewBox="0 0 24.5 24">
  <defs>
    <style>
      .cls-1 {
        fill: #fff;
        fill-rule: evenodd;
      }
    </style>
  </defs>
  <path class="cls-1" d="M1355.78,376.393h-15.56a4.477,4.477,0,0,0-4.48,4.481v3.6a4.476,4.476,0,0,0,4.48,4.48h15.56a4.476,4.476,0,0,0,4.48-4.48v-3.6A4.477,4.477,0,0,0,1355.78,376.393Zm-12.29,2.8h-1.45v7.19h-1.4V379.2h-1.44v-1.223h4.29V379.2Zm4.09,7.19h-1.24v-0.681a2.792,2.792,0,0,1-.72.574,1.508,1.508,0,0,1-.72.2,0.776,0.776,0,0,1-.65-0.277,1.366,1.366,0,0,1-.22-0.832v-5.189h1.24v4.761a0.524,0.524,0,0,0,.08.318,0.3,0.3,0,0,0,.25.1,0.72,0.72,0,0,0,.35-0.13,1.758,1.758,0,0,0,.39-0.334v-4.714h1.24v6.207Zm4.5-1.282a1.573,1.573,0,0,1-.29,1.011,1.049,1.049,0,0,1-.85.351,1.483,1.483,0,0,1-.65-0.136,1.55,1.55,0,0,1-.53-0.42v0.476h-1.25v-8.413h1.25v2.709a2.026,2.026,0,0,1,.53-0.43,1.22,1.22,0,0,1,.58-0.148,1.082,1.082,0,0,1,.9.4,1.9,1.9,0,0,1,.31,1.161V385.1Zm4.3-1.672h-2.37V384.6a1.37,1.37,0,0,0,.12.68,0.456,0.456,0,0,0,.42.189,0.514,0.514,0,0,0,.43-0.161,1.348,1.348,0,0,0,.12-0.708v-0.283h1.28v0.319a1.963,1.963,0,0,1-.47,1.439,1.846,1.846,0,0,1-1.39.479,1.681,1.681,0,0,1-1.31-.511,1.97,1.97,0,0,1-.48-1.407v-2.788a1.751,1.751,0,0,1,.52-1.317,1.9,1.9,0,0,1,1.36-.507,1.736,1.736,0,0,1,1.31.47,1.846,1.846,0,0,1,.46,1.354v1.583Zm-1.82-2.322a0.508,0.508,0,0,0-.43.172,0.973,0.973,0,0,0-.12.556v0.628h1.09v-0.628a0.89,0.89,0,0,0-.13-0.556A0.468,0.468,0,0,0,1354.56,381.11Zm-4.28-.02a0.569,0.569,0,0,0-.26.059,0.955,0.955,0,0,0-.26.19v3.867a1.03,1.03,0,0,0,.3.221,0.688,0.688,0,0,0,.3.067,0.394,0.394,0,0,0,.33-0.133,0.685,0.685,0,0,0,.11-0.428v-3.2a0.733,0.733,0,0,0-.13-0.478A0.481,0.481,0,0,0,1350.28,381.09Zm-8.02-6.854h1.57v-3.845l1.83-5.423h-1.6l-0.97,3.7h-0.1l-1.02-3.7h-1.59l1.88,5.6v3.672Zm5.53,0.173a2.115,2.115,0,0,0,1.49-.5,1.756,1.756,0,0,0,.55-1.376V369a1.645,1.645,0,0,0-.56-1.28,2.053,2.053,0,0,0-1.42-.5,2.276,2.276,0,0,0-1.51.471,1.554,1.554,0,0,0-.57,1.265v3.544a1.834,1.834,0,0,0,.55,1.387A2.077,2.077,0,0,0,1347.79,374.409Zm-0.58-5.5a0.449,0.449,0,0,1,.16-0.362,0.6,0.6,0,0,1,.41-0.137,0.68,0.68,0,0,1,.45.137,0.43,0.43,0,0,1,.17.362v3.726a0.539,0.539,0,0,1-.17.432,0.625,0.625,0,0,1-.45.157,0.551,0.551,0,0,1-.42-0.155,0.6,0.6,0,0,1-.15-0.434V368.91Zm4.72,5.426a1.711,1.711,0,0,0,.81-0.218,3.052,3.052,0,0,0,.81-0.639v0.757h1.39V367.4h-1.39v5.191a2.066,2.066,0,0,1-.43.367,0.824,0.824,0,0,1-.39.144,0.356,0.356,0,0,1-.29-0.11,0.615,0.615,0,0,1-.09-0.349V367.4h-1.39v5.715a1.455,1.455,0,0,0,.24.914A0.894,0.894,0,0,0,1351.93,374.336Z" transform="translate(-1335.75 -364.969)"/>
</svg>
