<svg xmlns="http://www.w3.org/2000/svg" viewBox="0 0 216.65 198.72"><defs><style>.cls-1,.cls-11,.cls-2,.cls-3,.cls-4,.cls-5,.cls-6,.cls-7{fill:none;}.cls-1,.cls-2,.cls-3{stroke:#9fa0a0;stroke-width:0.36px;}.cls-1,.cls-11,.cls-14,.cls-2,.cls-3,.cls-4,.cls-5,.cls-6,.cls-7{stroke-miterlimit:10;}.cls-2{stroke-dasharray:1.45 1.45;}.cls-3{stroke-dasharray:1.45 1.45;}.cls-4,.cls-5,.cls-6,.cls-7{stroke:#040000;stroke-width:0.8px;}.cls-5{stroke-dasharray:3.02 3.02;}.cls-6{stroke-dasharray:2.87 2.87;}.cls-7{stroke-dasharray:2.98 2.98;}.cls-8{fill:#444;}.cls-9{fill:#ccc;}.cls-10,.cls-14{fill:#fff;}.cls-11{stroke:#d80f0e;stroke-width:1.82px;}.cls-12{fill:#d80f0e;}.cls-13{fill:#231815;}.cls-14{stroke:#231815;stroke-width:0.03px;}.cls-15{fill:#e60012;}.cls-16{fill:#e72119;}.cls-17{fill:#1d2d6c;}</style></defs><title>img-feature01</title><g id="レイヤー_2" data-name="レイヤー 2"><g id="編集モード"><path class="cls-1" d="M143.11,26.39l.71-.14"/><path class="cls-2" d="M145.26,26a56,56,0,0,1,61.21,74.06,56.64,56.64,0,0,1-3.63,8.16"/><path class="cls-1" d="M202.48,108.88q-.16.32-.36.63"/><path class="cls-1" d="M159.83,149.7c-.1.22-.21.44-.32.65"/><path class="cls-3" d="M158.85,151.65A56.06,56.06,0,0,1,58.5,149.22"/><path class="cls-1" d="M58.19,148.56c-.1-.22-.19-.44-.29-.67"/><path class="cls-1" d="M14.27,108.17l-.36-.63"/><path class="cls-3" d="M13.21,106.26A56,56,0,0,1,62.67,23.89a56.76,56.76,0,0,1,8.9.7"/><path class="cls-1" d="M72.29,24.71l.72.13"/><line class="cls-4" x1="25.25" y1="97.33" x2="25.25" y2="95.88"/><line class="cls-5" x1="25.25" y1="92.86" x2="25.25" y2="46.13"/><polyline class="cls-4" points="25.25 44.62 25.25 43.16 26.7 43.16"/><line class="cls-6" x1="29.58" y1="43.16" x2="189.1" y2="43.16"/><polyline class="cls-4" points="190.53 43.16 191.99 43.16 191.99 44.62"/><line class="cls-7" x1="191.99" y1="47.6" x2="191.99" y2="99.66"/><line class="cls-4" x1="191.99" y1="101.15" x2="191.99" y2="102.61"/><polygon class="cls-8" points="87.35 69.31 67.34 34.65 87.35 0 127.37 0 147.38 34.65 127.37 69.31 87.35 69.31"/><polygon class="cls-8" points="156.63 166.64 136.62 131.99 156.63 97.33 196.64 97.33 216.65 131.99 196.64 166.64 156.63 166.64"/><path class="cls-9" d="M127.06,180a18.74,18.74,0,1,1-18.74-18.74A18.74,18.74,0,0,1,127.06,180Z"/><rect class="cls-10" x="97.05" y="33.9" width="3.34" height="1.5"/><path class="cls-10" d="M93.24,34.65a2.83,2.83,0,0,1,1.13,2.52q0,3.28-5,3.28H87.77a6.06,6.06,0,0,1-3.53-.83,3,3,0,0,1-1.14-2.57h3.08c0,1.27.66,1.9,2,1.9h.91q2.25,0,2.25-1.77c0-1.19-.66-1.78-2-1.77H87.5A6.16,6.16,0,0,1,84,34.66a2.85,2.85,0,0,1-1.13-2.52c0-2.18,1.67-3.26,5-3.26h1.59a6,6,0,0,1,3.53.83,3,3,0,0,1,1.14,2.57H91a1.72,1.72,0,0,0-2-1.91h-.92c-1.5,0-2.24.59-2.24,1.76s.66,1.78,2,1.77h1.82a6.08,6.08,0,0,1,3.53.75"/><path class="cls-10" d="M106.18,32.37V33.9h7.16v1.5h-7.16v5.05h-3.05V32.76q0-3.9,4.78-3.9h5.43v1.49h-5.28c-1.25,0-1.88.67-1.88,2"/><rect class="cls-10" x="115.66" y="28.88" width="3.04" height="11.57"/><polygon class="cls-10" points="131.88 30.36 127.76 30.36 127.76 40.45 124.73 40.45 124.73 30.36 120.61 30.36 120.61 28.86 131.88 28.86 131.88 30.36"/><polygon class="cls-8" points="20.01 167.54 0 132.88 20.01 98.23 60.02 98.23 80.03 132.88 60.02 167.54 20.01 167.54"/><path class="cls-10" d="M19.3,128.8v.76h-4v.52h4v.75H10.21v-.75h3.91v-.52H10.21v-.76h3.91v-.52h1.19v.52Zm-.44,2.43v1.44c0,.38-.29.66-1.4.66l-.18.65h2v.8H10.21V134h2l-.19-.63h-1.3v-2.12Zm-8.17,3.87h8.13v1.75c0,.37-.17.56-.52.56H10.69Zm6.94,1.59c.05,0,.08,0,.08-.09v-.79h-5.9v.88ZM11.85,132v.69h5.66c.15,0,.23,0,.23-.13v-.63H11.85Zm1.61,2h2.59l.17-.63H13.27Z"/><path class="cls-10" d="M20.45,128.53h6.81v3c0,.13.06.2.17.2h1.95v.92H26.91c-.48,0-.72-.27-.72-.8v-2.35H20.45Zm2.11,1.63h1a2.33,2.33,0,0,1-.28,1.2.79.79,0,0,1-.55.31v1.56H24v-3.48h1v3.48h2.07v3.07c0,.13.05.19.15.19h2.15v1H26.76q-.69,0-.69-.84v-2.43H25v3.27H24v-3.27H22.77v2.71c0,.37-.2.56-.6.56H20.45v-1h1.17c.1,0,.15-.06.15-.19v-2.12H20.45v-1h1.32v-1.56H20.45v-.88h1.8C22.4,130.79,22.5,130.58,22.56,130.16ZM28.45,133h1v.91c0,.26-.19.4-.56.4H27.66v-.68h.67c.08,0,.12-.05.12-.16Zm0-4.71h.92v1c0,.26-.17.4-.52.4h-1v-.68h.51c.08,0,.12,0,.12-.16Zm-.64,1.64h.92v.48c0,.1.05.15.16.15h.48v.69h-1c-.35,0-.52-.14-.52-.4Zm0,4.66h1v.63c0,.11,0,.17.16.17h.4V136h-1c-.37,0-.56-.13-.56-.4Z"/><path class="cls-10" d="M31.17,128.8h1L32,130.08h.69v-1.76h1v1.76h.75V131h-.75v1.73l.79-.21v.51h3.43v-.72H39v.72h.8v1H39v2.43a1,1,0,0,1-.27.71.82.82,0,0,1-.65.25H36.79v-.92h.88c.13,0,.19-.15.19-.44v-2h-3.5v-.42l-.72.19v3.7h-1v-3.42l-1.92.51v-1l1.92-.51v-2h-.83l-.09.7c-.1.68-.36,1-.76,1H30.5v-1h.15c.09,0,.16-.17.21-.49Zm8.24.2v1H37.75v1.15h2v1H34.39v-1h2.24V130H34.84v-1h1.79v-.68h1.12V129Zm-4.85,5.45h1l.15,1c0,.17.12.25.25.25h.55v.79h-1a.57.57,0,0,1-.61-.44Z"/><path class="cls-10" d="M50,128.68v1.08H44.79l-1.95,6.57c-.16.56-.43.84-.83.84h-1.2v-1h.56c.12,0,.22-.1.28-.3l1.9-6.11H40.81v-1.08Zm-5.06.88H46v8H44.92Zm1.94,1.76H48l1.2,4.58c0,.21.13.32.28.32H50v.95H48.82c-.44,0-.69-.28-.76-.83Z"/><path class="cls-10" d="M55.55,128.32h1a1.55,1.55,0,0,1-.28,1,.87.87,0,0,1-.66.26H54.32V130h2.26v.81H54.32v.39h1.87V134c0,.37-.23.56-.68.56H54.32v.52h2.15v.75H54.32v.84h2.11v.8H51v-.8h2.35v-.84H51.13v-.75h2.23v-.52h-2v-3.35h2v-.39H51.05V130h2.31v-.46H51.17v-.81h4.06C55.38,128.72,55.49,128.59,55.55,128.32Zm-3.19,4.19h1V132h-1Zm1,1.27v-.56h-1v.56Zm1-1.83v.56h.91V132Zm.67,1.83c.16,0,.24-.06.24-.2v-.36h-.91v.56Zm1.68-2.89h.59l.09-2.57h.91l-.08,2.57h1.68v5.76c0,.51-.28.76-.84.76h-.68v-.84h.36c.13,0,.2-.06.2-.19V131.8h-.75l-.16,4a2.23,2.23,0,0,1-.26,1.09.74.74,0,0,1-.63.39h-.56v-.88h.29q.24,0,.24-.63l.16-4h-.56Z"/><path class="cls-10" d="M69.82,131.66v.79H62.25v4a.89.89,0,0,1-1,1h-.48v-.92h.28c.13,0,.2-.09.2-.27v-4.58Zm-5-3.32h1.27v.56h3.66v.8H61v-.8H64.8Zm-1.2,4.47h1l-.22.6h1.43v-.64h1.07v.64h2.63v.8H66.91V135h2.47v.8H66.91v.75h2.91v.8H62.56v-.8h3.28v-.75H63.12V135h2.72v-.79H64.1a1,1,0,0,1-.89.35h-.65v-.79h.32a.4.4,0,0,0,.31-.17Z"/><path class="cls-10" d="M66.55,130.43h1.17a4.54,4.54,0,0,1-1.45,1.12,7.2,7.2,0,0,1-3,.37h-.68v-.59h.27a7.63,7.63,0,0,0,2.79-.25A5.7,5.7,0,0,0,66.55,130.43Z"/><path class="cls-10" d="M65.37,131.08a7.66,7.66,0,0,0,2.79.25h.28v.59h-.69a7.23,7.23,0,0,1-3-.37,4.56,4.56,0,0,1-1.44-1.12h1.16A6.25,6.25,0,0,0,65.37,131.08Z"/><path class="cls-9" d="M44,43.16A18.74,18.74,0,1,1,25.25,24.43,18.74,18.74,0,0,1,44,43.16Z"/><circle class="cls-9" cx="191.99" cy="43.16" r="18.74"/><path class="cls-10" d="M168.85,128.29l.5.16a.28.28,0,0,1-.09.16,14.51,14.51,0,0,1-1.08,4.29c1.27,1.26,3.08,1.54,5.29,1.54h3.93a2.8,2.8,0,0,0-.34.84h-3.61c-2.41,0-4.28-.33-5.65-1.62a6.32,6.32,0,0,1-1.75,2,3,3,0,0,0-.64-.6,5.65,5.65,0,0,0,1.81-2,8.19,8.19,0,0,1-1.22-2.55l.67-.28a7.29,7.29,0,0,0,.93,2,12.16,12.16,0,0,0,.78-3.12h-1.63l-.27.52-.79-.21c.67-1.23,1.46-2.85,2-4H165.5v-.78h2.68l.16,0,.55.23a.75.75,0,0,1-.1.17c-.4.81-1,2.1-1.64,3.32h1.54Zm3.77.05v-1H169v-.71h3.61v-1H170v-.7h2.61v-1.15l1.09.08c0,.09-.08.15-.24.16v.91h2.8v1.71h1v.71h-1V129h-2.8v1.06h3v.68h-3v1.06h3.59v.72h-3.59V134h-.85v-1.41h-3.45v-.72h3.45v-1.06h-2.88v-.68h2.88V129h-2.7v-.7Zm.85-2.74v1h2v-1Zm2,2.74v-1h-2v1Z"/><path class="cls-10" d="M189.87,125.23V126H186.8l.68.16c0,.08-.13.12-.28.12a13.37,13.37,0,0,1-.72,1.4h2.72v6.86c0,1.07-.51,1.09-2.72,1.09a3.38,3.38,0,0,0-.3-.84l1.35,0c.78,0,.84,0,.84-.3v-6.07h-2.71v1.13c0,.23.05.27.4.27h1.26c.27,0,.34-.07.36-.61a2,2,0,0,0,.68.26c-.08.82-.31,1-.93,1H186c-.89,0-1.1-.18-1.1-.93v-1.14H183.2c-.17,1.38-.69,2.24-2.65,2.71a2,2,0,0,0-.42-.61c1.61-.33,2.12-.93,2.29-2.1H180v7.17h-.82V127.7h2.6a8.54,8.54,0,0,0-.67-1.5l.81-.18a6.74,6.74,0,0,1,.72,1.57l-.42.11h3.31a15.94,15.94,0,0,0,.76-1.68h-7.87v-.79h5.23v-1.44l1.12.08c0,.08-.08.15-.26.16v1.2Zm-3.23,9.1h-4.12v.77h-.78v-3.92h4.9Zm-.79-2.46h-3.33v1.77h3.33Z"/><line class="cls-11" x1="100.18" y1="130.07" x2="116.29" y2="130.07"/><polygon class="cls-12" points="100.73 125.98 100.73 134.16 96.64 130.07 100.73 125.98"/><polygon class="cls-12" points="115.74 125.98 115.74 134.16 119.83 130.07 115.74 125.98"/><line class="cls-11" x1="67.64" y1="88.58" x2="81.53" y2="74.69"/><polygon class="cls-12" points="65.13 85.3 70.92 91.08 65.14 91.08 65.13 85.3"/><line class="cls-11" x1="136.83" y1="77.19" x2="150.72" y2="91.08"/><polygon class="cls-12" points="140.11 74.69 134.32 80.47 134.33 74.69 140.11 74.69"/><path class="cls-13" d="M91.82,143.31a2.21,2.21,0,0,0-.66-.57,9.45,9.45,0,0,0,3-2.38,2.92,2.92,0,0,0,.6-1,4.64,4.64,0,0,0,.9.26c.13,0,.14.12,0,.14a.54.54,0,0,0-.18.1,5.77,5.77,0,0,0,3.68,2.36,2.48,2.48,0,0,0-.52.83,7.69,7.69,0,0,1-3.55-2.75A17.46,17.46,0,0,1,91.82,143.31Zm1.49,3.25v.79h-.83a6.87,6.87,0,0,0,.08-1.1v-1.64a6.29,6.29,0,0,0,0-.7c.27,0,1.39,0,2.62,0s2.4,0,2.64,0a5,5,0,0,0,0,.67v1.65a7.88,7.88,0,0,0,.07,1.09H97v-.76ZM95.15,143c-1.09,0-1.57,0-2,.06v-.74c.42,0,.88.06,2,.06a16.49,16.49,0,0,0,1.94-.06V143A19.18,19.18,0,0,0,95.15,143ZM97,146v-1.39h-3.7V146Z"/><path class="cls-13" d="M101.92,147.29h-.81c0-.49.1-1.24.1-1.87v-2.79c-.24.46-.49.88-.67,1.2a2.65,2.65,0,0,0-.52-.61,9.25,9.25,0,0,0,1.17-2,10.89,10.89,0,0,0,.58-1.72,2,2,0,0,0,.7.26c.27,0,.29.1.08.22s-.14.17-.63,1.21Zm1.94-5.83a14.27,14.27,0,0,1-1,1.61,1.48,1.48,0,0,0-.69-.33,9.44,9.44,0,0,0,1.42-2.36,4.53,4.53,0,0,0,.33-1.07,2.59,2.59,0,0,0,1,.29c.08,0,.12.16,0,.23a1.22,1.22,0,0,0-.55.66l-.17.35h2.42a7.78,7.78,0,0,0,1.1-.07v.77a7.67,7.67,0,0,0-1.1-.08h-1.7v1.45h1.38a7.62,7.62,0,0,0,1-.06v.76a9,9,0,0,0-1-.06H104.9v1.5h1.53a8.75,8.75,0,0,0,1.09-.08v.82a9,9,0,0,0-1.09-.08H104.9v.2c0,.48,0,.89.08,1.5h-.85c.05-.63.07-1.08.07-1.5v-4.45Z"/><path class="cls-13" d="M110.07,145.65a13.14,13.14,0,0,1-.81,1.43.89.89,0,0,0-.69-.31,5.37,5.37,0,0,0,1.07-1.84,2.79,2.79,0,0,0,.71.31c.11,0,.11.1,0,.14A.57.57,0,0,0,110.07,145.65Zm.5-1a14.14,14.14,0,0,0-1.46,0c0-.2,0-.55,0-.88v-3c0-.34,0-.68,0-.88a14.14,14.14,0,0,0,1.46,0,12.82,12.82,0,0,0,1.41,0c0,.19,0,.54,0,.88v3c0,.33,0,.69,0,.88A12.82,12.82,0,0,0,110.57,144.64Zm.75-4.13h-1.57v.85h1.57Zm0,1.38h-1.57v.82h1.57Zm0,1.35h-1.57v.85h1.57Zm.07,3a3.84,3.84,0,0,0-.64-1.05l.53-.37a10.85,10.85,0,0,1,.67.91Zm5.35.13a1.44,1.44,0,0,0-.56.73,11.61,11.61,0,0,1-1.56-1.33,7.62,7.62,0,0,1-1.84,1.38,1.45,1.45,0,0,0-.42-.58,5.37,5.37,0,0,0,1.87-1.29,5.84,5.84,0,0,1-.81-2.33l.59-.2a4.62,4.62,0,0,0,.64,2,6.4,6.4,0,0,0,.69-2.21h-2.1c0,2.31-.45,3.5-1.58,4.72a.88.88,0,0,0-.56-.47c1-.74,1.51-1.83,1.51-4.22a12.3,12.3,0,0,0-.1-2.44,10.34,10.34,0,0,0,3.3-.63,1.77,1.77,0,0,0,.43.68c.1.11.06.18,0,.15a2.23,2.23,0,0,0-.81,0c-.64.11-1.56.25-2.14.29V142h2a5.29,5.29,0,0,0,.87,0,7.73,7.73,0,0,1-1.1,3.34A5.79,5.79,0,0,0,116.74,146.4Z"/><path class="cls-13" d="M124.36,140.87v.56c-.66,0-1.36,0-3.06-.05s-2.41,0-3.07.05v-.56c.61,0,1.24.06,2.65.06v-.36c-1.56,0-2.5,0-3.4.05V140c.92,0,1.84.06,3.4.06a4.16,4.16,0,0,0,0-.63,3,3,0,0,0,.7,0c.22,0,.25.06.09.18s-.08.15-.09.42c1.71,0,2.73,0,3.66-.06v.61c-.93,0-1.95-.05-3.66-.05v.36C123.08,140.93,123.73,140.91,124.36,140.87Zm-3.69,5.56c.16.1.13.14-.1.17a7.91,7.91,0,0,0-.83.29c-.21.08-.91.32-1.5.5a1.34,1.34,0,0,0-.54-.51,16.3,16.3,0,0,0,2.38-.75c-.86,0-1.24,0-1.67,0a3,3,0,0,0,0-.6v-1.52a3.24,3.24,0,0,0,0-.61c.58,0,1.13,0,2.81,0s2.26,0,2.82,0a4.77,4.77,0,0,0,0,.61v1.52a5.74,5.74,0,0,0,0,.6c-.44,0-.84,0-1.76,0h-2A2.28,2.28,0,0,0,120.67,146.43Zm.56-3.22c-1.32,0-2.35,0-3.39,0a5.46,5.46,0,0,0,0-.8,4.68,4.68,0,0,0,0-.8c1,0,2.07.05,3.39.05s2.38,0,3.42-.05a5.88,5.88,0,0,0-.05.8,6.1,6.1,0,0,0,.05.8C123.6,143.23,122.55,143.21,121.23,143.21Zm-1.35-1.05H118.5v.59h1.38Zm3.47,1.77H119.1v.3h4.25Zm0,.72H119.1v.29h4.25Zm0,.7H119.1v.29h4.25ZM122,142.16H120.5v.59H122Zm2.49,5.25a14.87,14.87,0,0,0-2.59-.76l.34-.49a18.5,18.5,0,0,1,2.67.67Zm-.5-5.25h-1.37v.59H124Z"/><path class="cls-13" d="M149.06,77.67a8.94,8.94,0,0,0,.68-.8c-.8,0-1.58,0-2.32.08v-.73c.76.06,1.35.08,2.72.08a4.08,4.08,0,0,0,.46-.86,3,3,0,0,0,.77.23c.18,0,.18.1,0,.18a1.82,1.82,0,0,0-.5.45h1.59c.84,0,1.67,0,2.42-.08V77c-.54,0-1.12-.06-1.71-.07a5.47,5.47,0,0,1-.84,1.11c.81.22,1.56.44,2.22.67a2.07,2.07,0,0,0-.52.75,17.46,17.46,0,0,0-2.22-1,7.25,7.25,0,0,1-3.65,1,1.9,1.9,0,0,0-.38-.73,6.7,6.7,0,0,0,3.3-.49C150.51,78,149.86,77.85,149.06,77.67Zm-.66-5a1.63,1.63,0,0,0-.23-.65,22.05,22.05,0,0,0,3.25,0,13.54,13.54,0,0,0,2.47-.37,2.34,2.34,0,0,0,.4.74c.09.1.06.16,0,.15a4.35,4.35,0,0,0-1.18,0l-1.39.08v.84c1.37,0,2.33,0,3.09-.07V74c-.64,0-1.39-.06-2.43-.06a3.84,3.84,0,0,0,2.79,1.1,2.3,2.3,0,0,0-.36.8,4.42,4.42,0,0,1-3.08-1.9h0v.45c0,.27,0,.61,0,1H151c0-.38,0-.7,0-1V74a5.81,5.81,0,0,1-3.08,1.84,1.5,1.5,0,0,0-.47-.61,5.61,5.61,0,0,0,2.95-1.33c-1.14,0-2,0-2.65.06v-.65c.8,0,1.79.07,3.25.07v-.82C150,72.64,148.91,72.66,148.4,72.66Zm1.66,4.73,1.56.41a4.57,4.57,0,0,0,.76-.93h-1.93Z"/><path class="cls-13" d="M156,73.41v-.69a13.68,13.68,0,0,0,1.62.07,13.49,13.49,0,0,0,1.61-.07v.69a21.77,21.77,0,0,0-3.23,0Zm.24,2.36V75.1c.33,0,.79.06,1.42.06a12.49,12.49,0,0,0,1.42-.06v.67c-.33,0-.79-.07-1.42-.07S156.58,75.74,156.25,75.77Zm0-1.21v-.67a10.86,10.86,0,0,0,1.42.06,10.6,10.6,0,0,0,1.41-.06v.67a8.89,8.89,0,0,0-1.41-.07A9.18,9.18,0,0,0,156.25,74.56Zm.76,4.69h-.68a11.46,11.46,0,0,0,.06-1.17V77c0-.34,0-.51,0-.71a12.48,12.48,0,0,0,1.33,0,12.25,12.25,0,0,0,1.33,0,5.56,5.56,0,0,0,0,.71v1a8.11,8.11,0,0,0,.07,1.12h-.65v-.53H157Zm.66-7.88a6.19,6.19,0,0,1,.48,1l-.71.27a3,3,0,0,0-.43-1Zm.75,5.47H157V78h1.41Zm5.14-2.21.06.82a19.22,19.22,0,0,0-2.11.22V78c0,.39.17.47.86.47s.78-.13.87-1.15a1.55,1.55,0,0,0,.78.39c-.21,1.06-.62,1.45-1.79,1.45s-1.39-.24-1.39-.91V75.78c-.75.11-1.16.17-1.63.28l-.07-.8c.5,0,1.11-.06,1.7-.13V73.19l-1.09.26a1.24,1.24,0,0,0-.37-.66,13.11,13.11,0,0,0,1.8-.42,5.51,5.51,0,0,0,1.44-.65,2.6,2.6,0,0,0,.62.73c.1.08.07.21,0,.17a1.84,1.84,0,0,0-.88.1c-.23.09-.51.19-.81.28v2C162.46,74.87,163,74.76,163.56,74.63Z"/><path class="cls-13" d="M165.59,73.59a1.23,1.23,0,0,0-.64-.41,3.74,3.74,0,0,0,1.35-1.78,3.8,3.8,0,0,0,.8.32c.12,0,.12.06,0,.11a1.45,1.45,0,0,0-.45.38,8,8,0,0,0,1.93-.1v.67a5.42,5.42,0,0,0-1.13-.09,6.71,6.71,0,0,1,.23.84l-.74.09a6.57,6.57,0,0,0-.1-.93h-.53C166.12,73,165.88,73.26,165.59,73.59Zm2.64-.16.69-.13c.08.21.18.47.26.73,1.64,0,2.52,0,3.08-.08v1.51h-.65v-.91h-6v.86H165V74c.73.06,1.61.08,3.46.08C168.37,73.82,168.3,73.61,168.23,73.43Zm-1.34,5.44c0,.18,0,.38.05.59h-.8a6.36,6.36,0,0,0,.06-.93V76a6.14,6.14,0,0,0-.07-1c.44,0,1.09.07,2.33.07s2,0,2.43-.07a6.34,6.34,0,0,0,0,.85c0,.27,0,.56,0,.87-.49,0-1.28-.05-2.52-.05h-1.49v.59h1.71c1.23,0,1.83,0,2.54,0a3.37,3.37,0,0,0,0,.66v1a6.13,6.13,0,0,0,0,.63h-.71v-.56Zm3.32-2.77v-.54h-3.33v.54Zm.21,2.25v-.62h-3.54v.62Zm-1-5a1.56,1.56,0,0,0-.62-.38,3.12,3.12,0,0,0,1-1.51,6.09,6.09,0,0,0,.75.28c.1,0,.12.06,0,.12a1.74,1.74,0,0,0-.42.41h.49a9.31,9.31,0,0,0,1.82-.12v.66a12,12,0,0,0-1.49-.07,7.57,7.57,0,0,1,.27.86l-.73.12a6.32,6.32,0,0,0-.17-1h-.49A7.24,7.24,0,0,1,169.38,73.31Z"/><path class="cls-13" d="M173.63,72.9v-.73c.31,0,.78,0,1.37,0s1.06,0,1.37,0v.73c-.24,0-.61-.05-1.05-.07V74.7c.4,0,.72,0,1-.06v.74c-.23,0-.55,0-1-.06v2.07a5.79,5.79,0,0,0,1-.41,2.5,2.5,0,0,0,0,.77,10.07,10.07,0,0,0-2.61,1.15,2.78,2.78,0,0,0-.23-1.07,6.72,6.72,0,0,0,1.22-.22V75.32a8.21,8.21,0,0,0-1,.06v-.74c.25,0,.58.06,1,.07V72.84C174.22,72.85,173.87,72.87,173.63,72.9ZM179,78.38c1,0,1.73,0,2.3-.07v.74c-.64,0-1.48-.08-2.66-.08s-2.14,0-2.77.08v-.74c.59,0,1.42.06,2.47.07v-1a12.12,12.12,0,0,0-1.68.09v-.75a16.74,16.74,0,0,0,1.68.09V76c-1.27,0-1.61,0-1.79,0,0-.49,0-1.29,0-2s0-1.64,0-2a14.93,14.93,0,0,0,2.15.07,13.32,13.32,0,0,0,2.15-.07c0,.38,0,1.21,0,2s0,1.56.06,2A13.68,13.68,0,0,0,179,76v.87c.77,0,1.36,0,1.78-.09v.75a15.47,15.47,0,0,0-1.78-.09Zm-.66-5.77h-1.09V73.7h1.09Zm0,1.64h-1.09v1.16h1.09Zm.66-.55h1.13V72.61H179Zm0,1.71h1.13V74.25H179Z"/><path class="cls-13" d="M33.34,75.84a3.51,3.51,0,0,0-.21-.75,2.17,2.17,0,0,0,1-.46,15.1,15.1,0,0,0,2.25-2.54,4.86,4.86,0,0,0,.87.45c.22.08.2.2,0,.21s-.29.11-.57.39a22.31,22.31,0,0,1-2,1.82l4-.14-1.15-1.09.6-.41a27.06,27.06,0,0,1,2.23,2.14l-.71.48c-.16-.21-.31-.4-.46-.57C34.57,75.61,34,75.68,33.34,75.84ZM34.77,80h-.84a7.71,7.71,0,0,0,.12-1.32V77.35a5.21,5.21,0,0,0,0-.81c.53,0,.89,0,2.75,0s2.29,0,2.75,0a6.56,6.56,0,0,0,0,.81v1.26c0,.47,0,.87,0,1.33h-.79v-.5H34.77Zm3.95-2.83H34.77v1.6h3.95Z"/><path class="cls-13" d="M42.66,76.06a3.91,3.91,0,0,0-1-1l.44-.46a10,10,0,0,1,1.07,1Zm.09-1.9a4.41,4.41,0,0,0-1-1.09l.53-.45a13.25,13.25,0,0,1,1,1Zm.25,4c-.11.64-.25,1.5-.32,1.9a3.15,3.15,0,0,0-.87-.32,3.74,3.74,0,0,0,.53-1.61,12.08,12.08,0,0,0,.26-1.51,1.12,1.12,0,0,0,.68.23A8.68,8.68,0,0,0,43,78.11Zm1.87-4.85a3.62,3.62,0,0,0,.49.32c.11,0,.12.07,0,.14s-.15.15-1.11,1.26l.56,0a1.72,1.72,0,0,0-.14-.28l.43-.21a3.84,3.84,0,0,1,.41.92l-.48.18a.76.76,0,0,0-.05-.21l-.76.06a2.69,2.69,0,0,0-.7.11,1.84,1.84,0,0,0-.08-.64.56.56,0,0,0,.49-.2c.14-.16.26-.3.36-.43l-.39,0a1.58,1.58,0,0,0-.43.11,2.58,2.58,0,0,0-.16-.55c.19-.06.28-.16.42-.43a4.77,4.77,0,0,0,.46-1.11,2.08,2.08,0,0,0,.55.25c.14,0,.15.07,0,.14s-.19.19-.72,1.11l.56,0C44.71,73.6,44.79,73.44,44.87,73.26Zm-1.54,3.38a3.33,3.33,0,0,0,.06-1h.53a3.37,3.37,0,0,1,0,1Zm5.51,2.52c-.11.6-.26.74-1.6,1a1.14,1.14,0,0,0-.33-.68c1.14,0,1.27-.13,1.29-.55H45.51c-.64,0-1,0-1.46,0a10.82,10.82,0,0,0,0-1.39,12.94,12.94,0,0,0,1.39.07h2.45v-.41H45.61c-.59,0-1,0-1.58,0v-.58c.7,0,1.4,0,2.25,0s1.57,0,2.22,0a5,5,0,0,0,0,1.44c-.31,0-.73,0-1.22,0H44.67v.37h3.06l1.22,0C48.92,78.6,48.89,78.85,48.84,79.16Zm-4.65-2.57a3.85,3.85,0,0,0-.12-1l.48-.07a5.12,5.12,0,0,1,.17.93Zm.71-.15a2.56,2.56,0,0,0-.15-.76l.48-.11a4.43,4.43,0,0,1,.19.76ZM46,72.34l.63-.11a3.57,3.57,0,0,1,.16.6,6.65,6.65,0,0,0,.77-.06v.55a12.46,12.46,0,0,0-2.23,0v-.55a5.84,5.84,0,0,0,.81.06A1.85,1.85,0,0,0,46,72.34Zm.41,1.72a4.32,4.32,0,0,0-.82,0v-.54a5.46,5.46,0,0,0,.82.05,5.26,5.26,0,0,0,.8-.05v.54A4.21,4.21,0,0,0,46.38,74.06Zm0,2.45-.84,0c0-.19,0-.47,0-.73s0-.51,0-.71c.21,0,.46,0,.84,0a8.09,8.09,0,0,0,.82,0c0,.2,0,.44,0,.71s0,.54,0,.74A8.09,8.09,0,0,0,46.4,76.51Zm0-1.72a5.45,5.45,0,0,0-.8,0v-.51a6.35,6.35,0,0,0,1.59,0v.51A5.5,5.5,0,0,0,46.39,74.79Zm.34.78h-.66v.48h.66Zm2.14-2.44a1.44,1.44,0,0,0,.53.25c.14,0,.15.06,0,.16a1.35,1.35,0,0,0-.27.31,10.8,10.8,0,0,1-1,1l.57-.06c0-.1-.1-.2-.14-.28l.53-.14a6.09,6.09,0,0,1,.36,1l-.54.17a2.34,2.34,0,0,0-.07-.32l-1,.13a2.56,2.56,0,0,0-.46.08,2.68,2.68,0,0,0-.1-.61,1.08,1.08,0,0,0,.59-.27c.1-.12.2-.24.28-.35l-.37,0a1.38,1.38,0,0,0-.41.15,2.35,2.35,0,0,0-.12-.61c.19,0,.26-.07.38-.32a4.91,4.91,0,0,0,.37-1.12,2.81,2.81,0,0,0,.6.2c.12,0,.13.07,0,.16a6,6,0,0,0-.65,1.08h.46C48.67,73.55,48.78,73.33,48.87,73.13Zm-1.46,3.4a4.94,4.94,0,0,0,0-1l.5-.07a8.31,8.31,0,0,1,0,1Zm.78,0a6.44,6.44,0,0,0-.11-.92l.46,0a5.14,5.14,0,0,1,.15.93Zm.74,0a3.53,3.53,0,0,0-.17-.87l.5,0a4.42,4.42,0,0,1,.24.84Z"/><path class="cls-13" d="M52.55,74.83l.68-.19c.13.16.3.38.49.66l-.3.11h1.39a2.85,2.85,0,0,0,.52-.79,2.27,2.27,0,0,0,.72.18c.1,0,.11.08,0,.14s-.25.15-.51.47c.68,0,1.21,0,1.9-.06V76c-.73,0-1.4-.07-2.82-.07v.5c1.1,0,1.86,0,2.48-.06V77c-.62,0-1.38-.07-2.48-.07v.54c1.82,0,2.53,0,3.37-.07v.66c-.89,0-1.62-.06-2.74-.06a4.83,4.83,0,0,0,3,1.17,2.25,2.25,0,0,0-.43.79,4.86,4.86,0,0,1-3.17-1.89v.68c0,.43,0,1,.08,1.5h-.85c.05-.52.09-1.07.09-1.5v-.61a5.12,5.12,0,0,1-3,1.8,1.35,1.35,0,0,0-.49-.66A5.67,5.67,0,0,0,53.35,78c-1.11,0-1.86,0-2.7.06V77.4c.82,0,1.48.07,3.27.07v-.54c-1.09,0-1.84,0-2.46.07v-.62c.63,0,1.37.06,2.46.06v-.5c-1.42,0-2.06,0-2.77.07v-.66c.7,0,1.24.06,1.83.06A2.87,2.87,0,0,0,52.55,74.83Zm.68-1.62a5.65,5.65,0,0,0-.06-.94,3.46,3.46,0,0,0,.79,0c.14,0,.15.07.06.13s-.15.16-.15.36v1.25h.79v-.84a7.33,7.33,0,0,0,0-.94,5.59,5.59,0,0,0,.76,0c.15,0,.17.08.06.13s-.13.16-.13.37v1.24c1.16,0,2,0,2.73-.07v.69c-.92-.05-2-.07-3.74-.07s-2.82,0-3.73.07V74c.71.05,1.53.07,2.67.07Zm-1,.77a7.48,7.48,0,0,0-.89-.89l.52-.47a9.16,9.16,0,0,1,.94.92Zm5.08-.79c-.11,0-.33.17-1,.85a2,2,0,0,0-.57-.39,3.5,3.5,0,0,0,.89-1.08,5.35,5.35,0,0,0,.68.45C57.46,73.08,57.46,73.14,57.3,73.19Z"/><path class="cls-13" d="M59.66,78.69a1.44,1.44,0,0,0-.61-.57,6,6,0,0,0,1.59-2.38c-.63,0-1,0-1.36,0v-.66a12.56,12.56,0,0,0,1.8.07,5.78,5.78,0,0,0-1-1l.5-.47.47.51.54-1h-.9a7.78,7.78,0,0,0-1.14.07v-.7a12.28,12.28,0,0,0,1.56.06c.87,0,1.28,0,1.58,0l-1.25,1.94.31.28-.43.3A8.52,8.52,0,0,0,63,75.1l-.27.87a5.33,5.33,0,0,0,1.42-.75,3.39,3.39,0,0,1-.67-1c-.18.22-.35.43-.5.59a1.24,1.24,0,0,0-.62-.26,5.37,5.37,0,0,0,1.51-2.3,2.7,2.7,0,0,0,.71.24c.12,0,.14.14,0,.2s-.2.18-.47.57h.67c.64,0,1.36,0,1.87,0a6.39,6.39,0,0,1-1.56,2,6.44,6.44,0,0,0,2.12.59,1.61,1.61,0,0,0-.46.78,10.59,10.59,0,0,1-2.16-1A4.39,4.39,0,0,1,64,76a5.11,5.11,0,0,0,.76.1c.11,0,.12,0,0,.14a2.54,2.54,0,0,0-.23.64,10.07,10.07,0,0,0,1.76-.08l-.16,2.08c0,.89-.15,1.08-1.37,1.3a1.42,1.42,0,0,0-.23-.83c.84,0,.92,0,1-.45l.09-1.44H64.51a3.07,3.07,0,0,1-1.82,2.73,1.73,1.73,0,0,0-.57-.57,2.43,2.43,0,0,0,1.76-2.16,11.76,11.76,0,0,0-1.4.07V76.8a10.65,10.65,0,0,0,1.47.08,3.89,3.89,0,0,0,0-.83,9.83,9.83,0,0,1-1.12.57.78.78,0,0,0-.23-.38l-.15.47-.65-.2.32-.77h-.61v3.63c0,.43-.1.55-1.14.83a1.8,1.8,0,0,0-.25-.86c.6.07.77,0,.77-.27V76.44A10.78,10.78,0,0,1,59.66,78.69Zm4.91-3.82a3.72,3.72,0,0,0,1-1.11H63.78A2.58,2.58,0,0,0,64.57,74.87Z"/><path class="cls-13" d="M24.33,38.37v.84c-.84-.05-1.82-.07-3.29-.08v2.7c0,.54-.37.85-1.66.87a1.84,1.84,0,0,0-.29-.88c1,.08,1.18-.06,1.18-.36V39.13c-1.52,0-2.55,0-3.41.08v-.84c.86.06,1.89.09,3.41.09V37.27A6.92,6.92,0,0,0,22,36.14H19c-.55,0-.9,0-1.29,0v-.77c.86,0,1.4.06,2.93.06,1.85,0,2.5,0,2.92-.06v.76a1.29,1.29,0,0,0-.72.24L21,37.66v.8C22.51,38.45,23.49,38.42,24.33,38.37Z"/><path class="cls-13" d="M26.84,35.39c1,0,1.67.06,2.53.06s1.72,0,2.61-.08l-.07,2.85c.45,0,.88,0,1.27-.1V39a12.55,12.55,0,0,0-1.28-.08l0,1.91a7.89,7.89,0,0,0,1-.09v.85a8.3,8.3,0,0,0-1.07,0c0,.94-.24,1.09-1.41,1.36a1.26,1.26,0,0,0-.55-.89c1,.12,1.18.06,1.2-.48H28.7c-.9,0-1.52,0-2.29.1l.19-2.72a10.75,10.75,0,0,0-1.17.08v-.89a11.06,11.06,0,0,0,1.21.09Zm.5,3.53-.12,1.94H31.1l0-1.94Zm3.81-.7,0-2.09H27.52l-.14,2.09Zm-1.83,1c.19.3.41.67.62,1.07l-.72.35a3.21,3.21,0,0,0-.61-1.07Zm0-2.7c.2.3.39.62.61,1l-.68.48a7.78,7.78,0,0,0-.65-1.12Z"/><path class="cls-13" d="M19.88,45.2a3.53,3.53,0,0,0-.5.81,11.39,11.39,0,0,1-2,2.91,3.8,3.8,0,0,0-.84-.5,7.7,7.7,0,0,0,2.55-3.71,3.52,3.52,0,0,0,.84.31C20,45.05,20,45.13,19.88,45.2Zm1.48,4.29.65-.35a25.76,25.76,0,0,1,1.68,2.48l-.85.51c-.1-.25-.23-.53-.38-.83a29.13,29.13,0,0,0-4.61.54,3.12,3.12,0,0,0-.31-.85,1,1,0,0,0,.52-.41,9.62,9.62,0,0,0,1.87-3.24,5.34,5.34,0,0,0,.89.4c.21.06.18.13,0,.23a1.5,1.5,0,0,0-.36.45c-.44.68-1.17,1.74-1.75,2.5l3.43-.22A12.59,12.59,0,0,0,21.36,49.49Zm2.53-.61a8.89,8.89,0,0,1-2.78-4.08,1.68,1.68,0,0,0,.81-.16,5.3,5.3,0,0,0,2.73,3.43A2.12,2.12,0,0,0,23.89,48.88Z"/><path class="cls-13" d="M28.56,47.16c-1.26,0-1.9,0-2.74.08v-.77c.85.05,1.49.08,2.74.08a18.9,18.9,0,0,0,2.33-.08v.77A21.68,21.68,0,0,0,28.56,47.16Zm-1.41,3.4v.91h-.8a13.16,13.16,0,0,0,.09-1.4V48.93a6,6,0,0,0-.06-.91c.29,0,1.2.06,2.19.06a19,19,0,0,0,2-.06,6.22,6.22,0,0,0-.06.9v1.15a5.91,5.91,0,0,0,.06,1h-.76v-.5Zm5.24-4.66v5.41c0,.77-.35,1.09-1.68,1a2,2,0,0,0-.3-.89c1.06.08,1.22,0,1.22-.39V45.6h-2.5c-1.71,0-2.31,0-2.78,0v-.79c.68.06,1.6.08,2.94.08s2.46,0,3.13-.08A8.63,8.63,0,0,0,32.39,45.9Zm-2.62,4V48.7H27.15v1.23Z"/><path class="cls-13" d="M102.51,174.5l.67-.19a5.12,5.12,0,0,1,.49.66l-.3.11h1.4a2.85,2.85,0,0,0,.52-.79,2.16,2.16,0,0,0,.71.17c.11,0,.12.09,0,.14a1.72,1.72,0,0,0-.5.48c.68,0,1.2,0,1.89-.07v.67c-.72-.05-1.39-.07-2.82-.07v.5c1.1,0,1.86,0,2.49-.07v.62c-.63,0-1.39-.07-2.49-.07v.55c1.83,0,2.53,0,3.37-.07v.66c-.88,0-1.61-.06-2.74-.06a4.89,4.89,0,0,0,3,1.17,2.27,2.27,0,0,0-.44.79,4.9,4.9,0,0,1-3.17-1.89v.68c0,.43,0,1,.09,1.5h-.86a13.79,13.79,0,0,0,.09-1.5v-.61a5.09,5.09,0,0,1-3,1.8,1.4,1.4,0,0,0-.49-.67,5.58,5.58,0,0,0,2.93-1.27c-1.11,0-1.86,0-2.7.06v-.66c.82.05,1.47.07,3.26.07v-.55c-1.08,0-1.83,0-2.45.07V176c.63.05,1.37.07,2.45.07v-.5c-1.41,0-2.05,0-2.77.07V175c.7.05,1.24.07,1.84.07A3.46,3.46,0,0,0,102.51,174.5Zm.67-1.62a7.51,7.51,0,0,0-.05-.95,3.38,3.38,0,0,0,.79.06c.14,0,.14.07.06.13s-.15.15-.15.35v1.25h.78v-.84a5.93,5.93,0,0,0,0-.94,5.88,5.88,0,0,0,.77.05c.15,0,.17.07.06.13s-.13.15-.13.36v1.24c1.16,0,2,0,2.72-.06v.68c-.91,0-2-.07-3.73-.07s-2.82,0-3.74.07v-.68c.72,0,1.54.06,2.67.06Zm-1,.76a8.31,8.31,0,0,0-.89-.89l.51-.46a8.38,8.38,0,0,1,1,.92Zm5.08-.78c-.12,0-.33.16-1,.84a2.33,2.33,0,0,0-.56-.39,3.63,3.63,0,0,0,.89-1.07,3.44,3.44,0,0,0,.68.44C107.42,172.75,107.42,172.81,107.26,172.86Z"/><path class="cls-13" d="M109.61,178.36a1.36,1.36,0,0,0-.6-.57,6.08,6.08,0,0,0,1.59-2.38c-.64,0-1,0-1.36,0v-.66a12.46,12.46,0,0,0,1.8.07,5.77,5.77,0,0,0-1-1l.5-.47c.16.18.31.34.47.5l.53-1h-.9a7.72,7.72,0,0,0-1.13.07v-.7a12.16,12.16,0,0,0,1.56.06,13.44,13.44,0,0,0,1.58,0l-1.26,1.95.32.28-.43.3a8.65,8.65,0,0,0,1.64-.09l-.27.86a4.89,4.89,0,0,0,1.41-.75,3.34,3.34,0,0,1-.67-1,6.88,6.88,0,0,1-.5.6,1.21,1.21,0,0,0-.61-.26,5.52,5.52,0,0,0,1.51-2.3,3.64,3.64,0,0,0,.7.24c.12,0,.14.14,0,.2s-.2.17-.46.56h.66c.65,0,1.36,0,1.88,0a6.49,6.49,0,0,1-1.56,2,6.33,6.33,0,0,0,2.12.6,1.55,1.55,0,0,0-.46.77,10.06,10.06,0,0,1-2.16-.95,5.31,5.31,0,0,1-.53.37,4.92,4.92,0,0,0,.76.09c.1,0,.12.05,0,.14a2.46,2.46,0,0,0-.24.64,12.13,12.13,0,0,0,1.77-.07l-.16,2.08c-.05.89-.16,1.08-1.37,1.3a1.38,1.38,0,0,0-.24-.83c.85,0,.93,0,1-.45l.08-1.44h-1.11a3.12,3.12,0,0,1-1.82,2.73,1.67,1.67,0,0,0-.58-.57,2.46,2.46,0,0,0,1.77-2.16,9.94,9.94,0,0,0-1.4.07v-.73a11.05,11.05,0,0,0,1.47.07,5.89,5.89,0,0,0,0-.83,10.83,10.83,0,0,1-1.12.58.83.83,0,0,0-.24-.39l-.15.48-.64-.21.31-.76h-.6V179c0,.43-.1.55-1.14.83a1.88,1.88,0,0,0-.26-.87c.61.07.77,0,.77-.26v-2.63A10.34,10.34,0,0,1,109.61,178.36Zm4.92-3.83a3.56,3.56,0,0,0,1-1.1h-1.77A2.54,2.54,0,0,0,114.53,174.53Z"/><path class="cls-13" d="M100.94,185.24a2.35,2.35,0,0,0-.66-.58,9.28,9.28,0,0,0,3-2.38,2.77,2.77,0,0,0,.61-1,5.8,5.8,0,0,0,.89.27c.14,0,.14.11,0,.13a.54.54,0,0,0-.18.1,5.83,5.83,0,0,0,3.68,2.37,2.21,2.21,0,0,0-.52.82,7.69,7.69,0,0,1-3.55-2.75A18.52,18.52,0,0,1,100.94,185.24Zm1.49,3.24v.79h-.83a8.11,8.11,0,0,0,.08-1.09v-1.65a6.29,6.29,0,0,0,0-.7c.27,0,1.38,0,2.62,0s2.39,0,2.64,0a3.49,3.49,0,0,0,0,.67v1.65a7.77,7.77,0,0,0,.08,1.09h-.83v-.76Zm1.83-3.58a17.12,17.12,0,0,0-2,.06v-.75a18.87,18.87,0,0,0,2,.07,15.81,15.81,0,0,0,1.95-.07V185A16.7,16.7,0,0,0,104.26,184.9Zm1.86,3v-1.39h-3.69v1.39Z"/><path class="cls-13" d="M111,189.22h-.82a17.48,17.48,0,0,0,.11-1.88v-2.79c-.25.46-.49.89-.67,1.2a2.91,2.91,0,0,0-.53-.61,9.52,9.52,0,0,0,1.18-2,11.61,11.61,0,0,0,.58-1.72,2.12,2.12,0,0,0,.7.25c.27,0,.28.1.07.23-.06,0-.14.16-.62,1.2Zm1.93-5.83a13.53,13.53,0,0,1-1,1.6,1.48,1.48,0,0,0-.69-.33,9.27,9.27,0,0,0,1.42-2.36,4.71,4.71,0,0,0,.33-1.07,2.64,2.64,0,0,0,1,.3c.08,0,.12.15,0,.22a1.18,1.18,0,0,0-.55.66c0,.11-.11.22-.17.36h2.42a7.4,7.4,0,0,0,1.09-.08v.77a7.67,7.67,0,0,0-1.1-.07H114v1.44h1.38a6.31,6.31,0,0,0,1-.06v.76a9,9,0,0,0-1-.06H114V187h1.53a7.18,7.18,0,0,0,1.09-.08v.82a8.86,8.86,0,0,0-1.09-.07H114v.19c0,.48,0,.9.08,1.5h-.86a14.71,14.71,0,0,0,.07-1.5v-4.44Z"/><path class="cls-13" d="M185.88,37.55l.67-.19A5.12,5.12,0,0,1,187,38l-.3.1h1.4a2.8,2.8,0,0,0,.52-.78,2.45,2.45,0,0,0,.71.17c.11,0,.11.09,0,.14a1.78,1.78,0,0,0-.5.47c.68,0,1.2,0,1.89-.06v.67c-.72,0-1.39-.07-2.82-.07v.49c1.1,0,1.86,0,2.49-.06v.62c-.63,0-1.39-.07-2.49-.07v.54c1.83,0,2.53,0,3.37-.07v.67c-.88-.05-1.61-.06-2.74-.06a4.89,4.89,0,0,0,3,1.17,2.27,2.27,0,0,0-.44.79,4.94,4.94,0,0,1-3.17-1.89v.68c0,.42,0,1,.09,1.5h-.86a14.09,14.09,0,0,0,.09-1.5v-.61a5,5,0,0,1-3,1.79,1.49,1.49,0,0,0-.49-.66,5.52,5.52,0,0,0,2.92-1.27c-1.1,0-1.85,0-2.69.06v-.67c.82.06,1.47.07,3.26.07v-.54c-1.08,0-1.83,0-2.45.07v-.62c.63,0,1.37.06,2.45.06v-.49c-1.41,0-2.05,0-2.76.07v-.67c.69,0,1.24.06,1.83.06A3.87,3.87,0,0,0,185.88,37.55Zm.67-1.63a5.93,5.93,0,0,0-.05-.94,2.92,2.92,0,0,0,.79.05c.14,0,.14.07.06.14s-.15.15-.15.35v1.25H188v-.84a5.93,5.93,0,0,0,0-.94,4.39,4.39,0,0,0,.77,0c.15,0,.17.08.06.14s-.13.15-.13.36v1.24c1.16,0,2,0,2.72-.06v.68c-.91,0-2-.07-3.73-.07s-2.82,0-3.74.07v-.68c.72,0,1.54.06,2.67.06Zm-1,.77a8.31,8.31,0,0,0-.89-.89l.51-.46a8.38,8.38,0,0,1,1,.92Zm5.08-.78c-.11,0-.33.16-1,.84a2,2,0,0,0-.57-.39,3.65,3.65,0,0,0,.9-1.07,3.44,3.44,0,0,0,.68.44C190.79,35.79,190.79,35.86,190.63,35.91Z"/><path class="cls-13" d="M193,41.41a1.36,1.36,0,0,0-.6-.57A6.08,6.08,0,0,0,194,38.46a12.9,12.9,0,0,0-1.36,0v-.66a12.46,12.46,0,0,0,1.8.07,5.77,5.77,0,0,0-1-1l.5-.47c.16.18.31.34.47.5l.53-1H194a9.9,9.9,0,0,0-1.13.06v-.69a12.16,12.16,0,0,0,1.56.06,13.33,13.33,0,0,0,1.58,0l-1.26,1.95.32.28-.43.3a8.65,8.65,0,0,0,1.64-.09l-.27.86a4.89,4.89,0,0,0,1.41-.75,3.46,3.46,0,0,1-.67-1c-.17.23-.35.44-.49.6a1.28,1.28,0,0,0-.63-.26,5.33,5.33,0,0,0,1.51-2.3,4,4,0,0,0,.71.24c.12,0,.14.13,0,.2s-.2.17-.46.56h.66c.65,0,1.36,0,1.88,0a6.61,6.61,0,0,1-1.56,2,6.33,6.33,0,0,0,2.12.6,1.55,1.55,0,0,0-.46.77,10.06,10.06,0,0,1-2.16-.95,5.31,5.31,0,0,1-.53.37,6.56,6.56,0,0,0,.76.09c.1,0,.12,0,0,.14a2.46,2.46,0,0,0-.24.64,12.13,12.13,0,0,0,1.77-.07l-.16,2.08c-.05.89-.16,1.08-1.37,1.3a1.38,1.38,0,0,0-.24-.83c.85,0,.93,0,1-.45l.08-1.44h-1.11A3.12,3.12,0,0,1,196,42.91a1.67,1.67,0,0,0-.58-.57,2.46,2.46,0,0,0,1.77-2.16,9.94,9.94,0,0,0-1.4.07v-.73a13.18,13.18,0,0,0,1.47.07,5.9,5.9,0,0,0,0-.83,10.83,10.83,0,0,1-1.12.58.83.83,0,0,0-.24-.39l-.14.47-.65-.2.31-.76h-.6v3.63c0,.42-.1.55-1.14.83a1.88,1.88,0,0,0-.26-.87c.61.07.77,0,.77-.26V39.15A10.19,10.19,0,0,1,193,41.41Zm4.92-3.83a3.6,3.6,0,0,0,1-1.11H197.1A2.5,2.5,0,0,0,197.9,37.58Z"/><path class="cls-13" d="M186,49.74c.42.27,1.51,1.07,1.78,1.28l-.36.48A15.47,15.47,0,0,0,186,50.26v2.17h-.56V49.91A7.39,7.39,0,0,1,183.74,52a2.22,2.22,0,0,0-.29-.55,7.2,7.2,0,0,0,1.74-2.17h-1.54v-.54h1.76V48H184V44.72h3.48V48H186v.77h1.68v.54H186Zm-1.46-4.52v.9h.93v-.9Zm0,1.38v.91h.93V46.6Zm2.41-.48v-.9h-1v.9Zm0,1.39V46.6h-1v.91Zm4.43,1,.38.15a.35.35,0,0,1-.07.09,5.39,5.39,0,0,1-4.14,3.65,1.93,1.93,0,0,0-.31-.49,5.74,5.74,0,0,0,2.48-1.16,5.35,5.35,0,0,0-1-.78l.41-.33a7.12,7.12,0,0,1,1,.73,4.33,4.33,0,0,0,.85-1.33H189.3a6.45,6.45,0,0,1-1.47,1.27,1.64,1.64,0,0,0-.4-.39,5.27,5.27,0,0,0,2-2.09,6,6,0,0,1-1.6.81,1.92,1.92,0,0,0-.32-.43,5,5,0,0,0,2-1.12,6.8,6.8,0,0,0-.93-.69l.4-.32a5.74,5.74,0,0,1,.9.62,4.31,4.31,0,0,0,.72-1.21h-1.49a6.42,6.42,0,0,1-1.26,1.23,1.4,1.4,0,0,0-.4-.37,4.74,4.74,0,0,0,1.75-2.09l.69.1c0,.07-.07.1-.17.11a5.36,5.36,0,0,1-.28.52h1.46l.09,0,.38.17a.7.7,0,0,1-.06.09,4.91,4.91,0,0,1-1.7,2.49l.6.09c0,.06-.06.1-.17.11a4.71,4.71,0,0,1-.38.62h1.56Z"/><path class="cls-13" d="M192.84,48.69a1.58,1.58,0,0,0-.53-.53,7.82,7.82,0,0,0,1.23-2.08,9.46,9.46,0,0,0,.53-1.58,3.6,3.6,0,0,0,.84.28c.22,0,.21.13,0,.26a4.32,4.32,0,0,0-.68,1.17v6h-.76c.05-.49.08-1.22.08-1.85V47.55A8.12,8.12,0,0,1,192.84,48.69Zm7-1.19v.76c-.51,0-1.12-.07-2-.07v1.29c1,0,1.78,0,2.35-.08v.8c-.57-.06-1.32-.08-2.35-.08V51c0,.39,0,1,.07,1.41h-.88a14,14,0,0,0,.08-1.41v-.88c-1.05,0-1.82,0-2.38.08v-.8c.6.05,1.34.08,2.38.08V48.19c-.9,0-1.55,0-2.07.07V47.5c.53,0,1.16.07,2.07.07v-1.8a5.57,5.57,0,0,0-.09-1.37,3.88,3.88,0,0,0,.89.08c.19,0,.24.08.06.19s-.13.27-.13.59v2.31C198.75,47.56,199.35,47.53,199.87,47.5Zm-3.2-.72-.71.31a7.79,7.79,0,0,0-.68-1.65l.67-.29C196.13,45.53,196.48,46.31,196.67,46.78ZM200,45.5a6.08,6.08,0,0,0-1,1.59,2.44,2.44,0,0,0-.72-.24,7.36,7.36,0,0,0,.95-1.81,2.84,2.84,0,0,0,.82.33C200.19,45.4,200.19,45.45,200,45.5Z"/><rect class="cls-14" x="113.94" y="92.49" width="31.86" height="21.24"/><path class="cls-15" d="M136.35,103.11a6.48,6.48,0,1,1-6.48-6.41A6.44,6.44,0,0,1,136.35,103.11Z"/><rect class="cls-16" x="74.51" y="92.49" width="31.86" height="21.24"/><rect class="cls-17" x="74.51" y="92.49" width="15.93" height="10.62"/><path class="cls-10" d="M80.8,96.29,79,95.81l1.3,1.29A2.27,2.27,0,0,1,80.8,96.29Z"/><path class="cls-10" d="M81.78,95.65l-1.29-1.3L81,96.12A2.4,2.4,0,0,1,81.78,95.65Z"/><path class="cls-10" d="M84,96.12l.48-1.77-1.3,1.3A2.23,2.23,0,0,1,84,96.12Z"/><path class="cls-10" d="M86.46,97.8l-1.78-.48a1.91,1.91,0,0,1,0,.48,1.83,1.83,0,0,1,0,.47Z"/><path class="cls-10" d="M84.63,97.1l1.3-1.29-1.78.48A2.29,2.29,0,0,1,84.63,97.1Z"/><path class="cls-10" d="M82.48,95.54a2.42,2.42,0,0,1,.47,0l-.47-1.77L82,95.59A2.61,2.61,0,0,1,82.48,95.54Z"/><path class="cls-10" d="M83.17,100l1.3,1.3L84,99.47A2.25,2.25,0,0,1,83.17,100Z"/><path class="cls-10" d="M84.15,99.31l1.78.48-1.3-1.3A2.25,2.25,0,0,1,84.15,99.31Z"/><path class="cls-10" d="M82.48,100.05a2,2,0,0,1-.48,0l.48,1.78L83,100A1.83,1.83,0,0,1,82.48,100.05Z"/><path class="cls-10" d="M81,99.47l-.47,1.78,1.29-1.3A2.43,2.43,0,0,1,81,99.47Z"/><path class="cls-10" d="M80.22,97.8a2.52,2.52,0,0,1,0-.48l-1.78.48,1.78.47A2.42,2.42,0,0,1,80.22,97.8Z"/><path class="cls-10" d="M80.33,98.49,79,99.79l1.77-.48A2.23,2.23,0,0,1,80.33,98.49Z"/><path class="cls-17" d="M82.48,95.54a2.26,2.26,0,1,1-2.26,2.26A2.26,2.26,0,0,1,82.48,95.54Z"/><path class="cls-10" d="M82.48,95.81a2,2,0,1,1-2,2A2,2,0,0,1,82.48,95.81Z"/></g></g></svg>