<svg xmlns="http://www.w3.org/2000/svg" width="332" height="32.72" viewBox="0 0 332 32.72">
  <defs>
    <style>
      .cls-1 {
        fill: #a67500;
        fill-rule: evenodd;
      }
    </style>
  </defs>
  <path id="シェイプ_859" data-name="シェイプ 859" class="cls-1" d="M701.583,5603.48c0.125-1.51-1.584-4.59-1.584-4.59s-1.709,3.08-1.584,4.59a9.031,9.031,0,0,0,1.584,3.5A9.031,9.031,0,0,0,701.583,5603.48Zm162.389,2.96c-1.33-.75-4.214.25-4.214,0.25a2.336,2.336,0,0,0-1.3-3.07,3.123,3.123,0,0,0-3.612.19c1.869-.03,2.377,1.88.856,2.75a19,19,0,0,1-4.4,1.43l-10.019.14a4.938,4.938,0,0,0,.522-0.19,4.377,4.377,0,0,0,1.813-1.62,3.1,3.1,0,0,0,.254-2.53,3.94,3.94,0,0,0-4.372-2.46l0,0.02c-0.026,0-.049-0.01-0.075-0.01a2.332,2.332,0,1,0,2.092,1.54c0.033,0.01.069,0.01,0.1,0.02a2.547,2.547,0,0,1,1.339,1.23,2.134,2.134,0,0,1-.011,1.84,3.62,3.62,0,0,1-1.418,1.49,5.975,5.975,0,0,1-4.272.49,11.9,11.9,0,0,1-2.994-1.1,12.7,12.7,0,0,0-1.942-1.07,40.88,40.88,0,0,0-20.455-3.41c-0.45.05-.9,0.12-1.345,0.19a49.352,49.352,0,0,0,6.626-2.75c1.94-1.01,3.84-2.1,5.673-3.28a45.732,45.732,0,0,1,5.631-3.25,15.927,15.927,0,0,1,6.206-1.59,7.309,7.309,0,0,1,3.082.56,4.4,4.4,0,0,1,2.176,2.02,3.552,3.552,0,0,1,.086,2.84,4.033,4.033,0,0,1-1.8,2.2,4.509,4.509,0,0,1-3.359.49,1.984,1.984,0,0,0,.608-1.43,2.051,2.051,0,0,0-4.1,0,1.974,1.974,0,0,0,.556,1.36l-0.017.02a4.854,4.854,0,0,0,3.459,1.47,5.806,5.806,0,0,0,3.445-1.01,5.22,5.22,0,0,0,2.064-2.84,4.342,4.342,0,0,0-.292-3.43,5.054,5.054,0,0,0-2.6-2.2,8.2,8.2,0,0,0-3.314-.52,16.291,16.291,0,0,0-6.323,1.79c-1.98.95-3.752,2.23-5.679,3.22-1.918,1.02-3.908,1.9-5.9,2.74-2.967,1.28-5.97,2.47-9,3.6a5.18,5.18,0,0,0,1.108-1.97,4.346,4.346,0,0,0-.291-3.43,5.016,5.016,0,0,0-2.6-2.2,8.2,8.2,0,0,0-3.314-.52,16.291,16.291,0,0,0-6.323,1.79c-1.98.94-3.753,2.23-5.679,3.22-1.918,1.02-3.908,1.89-5.9,2.74-0.563.24-1.135,0.46-1.7,0.7l-0.016-.02c-0.022.02-.049,0.04-0.071,0.06-0.578.24-1.159,0.48-1.739,0.71a10.051,10.051,0,0,0,1.515-1.46,11.186,11.186,0,0,0,1.754-10.54,12.376,12.376,0,0,0-7.543-7.6,15.625,15.625,0,0,0-5.47-.91,9.3,9.3,0,0,0-5.319,1.72,8.7,8.7,0,0,0-3.2,4.65,6.3,6.3,0,0,0-.12,2.97,3.551,3.551,0,0,0,1.632,2.3,2.674,2.674,0,1,0-.519-3.92,6.107,6.107,0,0,1,.086-1.1,7.293,7.293,0,0,1,2.6-4.29,8.271,8.271,0,0,1,4.86-1.8,15.156,15.156,0,0,1,5.295.79,11.947,11.947,0,0,1,4.542,2.79,11.159,11.159,0,0,1,2.722,4.53,10.148,10.148,0,0,1-1.958,9.88,12.793,12.793,0,0,1-4.336,2.93,28.111,28.111,0,0,1-4.928,1.66,24.245,24.245,0,0,0,4.432-2.45,12.815,12.815,0,0,0,5.263-7.9,7.339,7.339,0,0,0-.7-4.96,5.371,5.371,0,0,0-4.51-2.63,5.661,5.661,0,0,0-4.778,2.13,4.115,4.115,0,0,0-.939,2.55,2.6,2.6,0,0,0,1.46,2.32l0.018-.03a2.005,2.005,0,0,0,.971.27,2.025,2.025,0,1,0,0-4.05,2.191,2.191,0,0,0-.813.17,4.029,4.029,0,0,1,.325-0.41,4.656,4.656,0,0,1,3.683-1.52,4.3,4.3,0,0,1,3.465,1.88,6.422,6.422,0,0,1,.962,4.17,9.787,9.787,0,0,1-1.455,4.31,12.8,12.8,0,0,1-3.18,3.4,20.993,20.993,0,0,1-7.173,3.35,43.817,43.817,0,0,1-7.848.51c-1.422-.03-2.859-0.12-4.3-0.24a6.179,6.179,0,0,1-.781-1.52,5.375,5.375,0,0,1,.926-5.14,6.8,6.8,0,0,1,2.062-1.6,3.907,3.907,0,0,1,2.412-.32,4.461,4.461,0,0,1,2.258,1.23,2.36,2.36,0,0,0-.741.33,2.209,2.209,0,0,0-.517,3.11,2.278,2.278,0,0,0,3.154.51,2.189,2.189,0,0,0,.832-2.42,5.974,5.974,0,0,0-4.671-4.46,5.491,5.491,0,0,0-3.465.55,6.913,6.913,0,0,0-2.539,2.2,6.689,6.689,0,0,0-.359,6.25,5.749,5.749,0,0,0,.5.9,50.708,50.708,0,0,1-6.7-2.32,40.508,40.508,0,0,1-6.794-3.56c-4.2-2.89-7.409-7.06-11.18-10.71a32.512,32.512,0,0,0-6.216-4.92,15.881,15.881,0,0,0-7.571-2.28,11.824,11.824,0,0,0-7.566,2.06,9.1,9.1,0,0,0-3.309,7.1l0.178-.02c-0.15.13-.309,0.25-0.455,0.38a15.662,15.662,0,0,0-3.442,4.29,13.075,13.075,0,0,0-.49,10.68c0.079,0.21.172,0.4,0.257,0.6l-3.509-.05-3.509.05c0.086-.2.178-0.39,0.257-0.6a13.075,13.075,0,0,0-.49-10.68,15.662,15.662,0,0,0-3.442-4.29c-0.146-.13-0.3-0.25-0.455-0.38l0.178,0.02a9.1,9.1,0,0,0-3.308-7.1,11.827,11.827,0,0,0-7.567-2.06,15.881,15.881,0,0,0-7.571,2.28,32.543,32.543,0,0,0-6.216,4.92c-3.771,3.65-6.98,7.82-11.18,10.71a40.469,40.469,0,0,1-6.794,3.56,50.745,50.745,0,0,1-6.7,2.32,5.828,5.828,0,0,0,.5-0.9,6.689,6.689,0,0,0-.359-6.25,6.918,6.918,0,0,0-2.538-2.2,5.493,5.493,0,0,0-3.465-.55,5.974,5.974,0,0,0-4.672,4.46,2.189,2.189,0,0,0,.832,2.42,2.278,2.278,0,0,0,3.154-.51,2.208,2.208,0,0,0-.517-3.11,2.355,2.355,0,0,0-.74-0.33,4.458,4.458,0,0,1,2.257-1.23,3.911,3.911,0,0,1,2.413.32,6.8,6.8,0,0,1,2.061,1.6,5.378,5.378,0,0,1,.927,5.14,6.217,6.217,0,0,1-.782,1.52c-1.437.12-2.874,0.21-4.3,0.24a43.829,43.829,0,0,1-7.848-.51,20.993,20.993,0,0,1-7.173-3.35,12.8,12.8,0,0,1-3.18-3.4,9.8,9.8,0,0,1-1.455-4.31,6.416,6.416,0,0,1,.963-4.17,4.292,4.292,0,0,1,3.465-1.88,4.654,4.654,0,0,1,3.682,1.52,4.029,4.029,0,0,1,.325.41,2.187,2.187,0,0,0-.813-0.17,2.025,2.025,0,1,0,0,4.05,2.005,2.005,0,0,0,.971-0.27l0.018,0.03a2.6,2.6,0,0,0,1.461-2.32,4.122,4.122,0,0,0-.94-2.55,5.659,5.659,0,0,0-4.777-2.13,5.371,5.371,0,0,0-4.511,2.63,7.339,7.339,0,0,0-.7,4.96,12.813,12.813,0,0,0,5.264,7.9,24.2,24.2,0,0,0,4.431,2.45,28.111,28.111,0,0,1-4.928-1.66,12.793,12.793,0,0,1-4.336-2.93,10.148,10.148,0,0,1-1.958-9.88,11.159,11.159,0,0,1,2.722-4.53,11.947,11.947,0,0,1,4.542-2.79,15.158,15.158,0,0,1,5.3-.79,8.276,8.276,0,0,1,4.86,1.8,7.3,7.3,0,0,1,2.6,4.29,6.2,6.2,0,0,1,.087,1.1,2.677,2.677,0,1,0-.52,3.92,3.55,3.55,0,0,0,1.633-2.3,6.316,6.316,0,0,0-.121-2.97,8.7,8.7,0,0,0-3.2-4.65,9.3,9.3,0,0,0-5.319-1.72,15.616,15.616,0,0,0-5.469.91,12.378,12.378,0,0,0-7.544,7.6,11.186,11.186,0,0,0,1.754,10.54,10.051,10.051,0,0,0,1.515,1.46c-0.58-.23-1.161-0.47-1.738-0.71-0.023-.02-0.05-0.04-0.072-0.06l-0.016.02c-0.565-.24-1.137-0.46-1.7-0.7-1.992-.85-3.983-1.72-5.9-2.74-1.926-.99-3.7-2.28-5.679-3.22a16.281,16.281,0,0,0-6.322-1.79,8.2,8.2,0,0,0-3.315.52,5.016,5.016,0,0,0-2.6,2.2,4.346,4.346,0,0,0-.291,3.43,5.193,5.193,0,0,0,1.108,1.97c-3.03-1.13-6.032-2.32-9-3.6-1.993-.84-3.983-1.72-5.9-2.74-1.926-.99-3.7-2.27-5.679-3.22a16.291,16.291,0,0,0-6.323-1.79,8.2,8.2,0,0,0-3.314.52,5.054,5.054,0,0,0-2.6,2.2,4.346,4.346,0,0,0-.291,3.43,5.214,5.214,0,0,0,2.063,2.84,5.808,5.808,0,0,0,3.445,1.01,4.857,4.857,0,0,0,3.46-1.47l-0.017-.02a1.977,1.977,0,0,0,.555-1.36,2.05,2.05,0,0,0-4.1,0,1.983,1.983,0,0,0,.607,1.43,4.51,4.51,0,0,1-3.359-.49,4.033,4.033,0,0,1-1.8-2.2,3.556,3.556,0,0,1,.086-2.84,4.406,4.406,0,0,1,2.176-2.02,7.309,7.309,0,0,1,3.082-.56,15.927,15.927,0,0,1,6.206,1.59,45.67,45.67,0,0,1,5.632,3.25c1.833,1.18,3.733,2.27,5.672,3.28a49.461,49.461,0,0,0,6.626,2.75c-0.447-.07-0.895-0.14-1.344-0.19a40.872,40.872,0,0,0-20.455,3.41,12.649,12.649,0,0,0-1.942,1.07,11.924,11.924,0,0,1-3,1.1,5.975,5.975,0,0,1-4.272-.49,3.626,3.626,0,0,1-1.418-1.49,2.134,2.134,0,0,1-.011-1.84,2.546,2.546,0,0,1,1.34-1.23c0.033-.01.068-0.01,0.1-0.02a2.16,2.16,0,0,0-.1.34,2.05,2.05,0,1,0,2.186-1.88c-0.026,0-.049.01-0.075,0.01l0-.02a3.94,3.94,0,0,0-4.372,2.46,3.1,3.1,0,0,0,.254,2.53,4.377,4.377,0,0,0,1.813,1.62,4.938,4.938,0,0,0,.522.19l-10.019-.14a18.977,18.977,0,0,1-4.4-1.43c-1.521-.87-1.014-2.78.855-2.75a3.123,3.123,0,0,0-3.612-.19,2.336,2.336,0,0,0-1.3,3.07s-2.883-1-4.214-.25a2.37,2.37,0,0,0,0,4.69c1.331,0.75,4.214-.25,4.214-0.25a2.336,2.336,0,0,0,1.3,3.07,3.123,3.123,0,0,0,3.612-.19c-1.869.03-2.376-1.88-.855-2.75a19.751,19.751,0,0,1,4.444-1.44l14.636-.21a5.156,5.156,0,0,0-.506,1.34,3.9,3.9,0,0,0,.889,3.49,4.908,4.908,0,0,0,3.391,1.46,6.516,6.516,0,0,0,3.692-.73,3.775,3.775,0,0,0,1.721-2.96,2.126,2.126,0,0,0,.062-0.31c0-.06-0.032-0.11-0.037-0.18,0-.05.013-0.11,0.008-0.17l-0.042.01a2.012,2.012,0,0,0-1.98-1.68,2.012,2.012,0,0,0-.149,4.02,2.531,2.531,0,0,1-.278.28,4.961,4.961,0,0,1-2.962.8,4.026,4.026,0,0,1-2.882-1.05,3.244,3.244,0,0,1-.874-2.88,4.414,4.414,0,0,1,.542-1.45l3.619-.05,18.915-.16,37.832-.13,3.408,0.01a40.314,40.314,0,0,0,5.44,1.13c1.987,0.22,4.1.51,6.067-.21a7.644,7.644,0,0,0,1.715-.88l21.2,0.07,10.441,0.09a10.9,10.9,0,0,0,.78,1.22,11.6,11.6,0,0,0,4.4,3.68,16.229,16.229,0,0,0,11.14.81,10.632,10.632,0,0,0,4.964-2.72,12.654,12.654,0,0,0,1.892-2.7l4.214,0.06,4.214-.06a12.69,12.69,0,0,0,1.892,2.7,10.632,10.632,0,0,0,4.964,2.72,16.228,16.228,0,0,0,11.14-.81,11.594,11.594,0,0,0,4.4-3.68,10.9,10.9,0,0,0,.78-1.22l10.442-.09,21.2-.07a7.665,7.665,0,0,0,1.715.88c1.971,0.72,4.081.43,6.067,0.21a40.36,40.36,0,0,0,5.441-1.13l3.408-.01,37.831,0.13,18.915,0.16,3.619,0.05a4.439,4.439,0,0,1,.543,1.45,3.242,3.242,0,0,1-.875,2.88,4.026,4.026,0,0,1-2.882,1.05,4.965,4.965,0,0,1-2.962-.8,2.622,2.622,0,0,1-.278-0.28,2.013,2.013,0,1,0-2.129-2.34l-0.042-.01c0,0.06.011,0.12,0.009,0.17-0.006.07-.037,0.12-0.037,0.18a2.126,2.126,0,0,0,.062.31,3.774,3.774,0,0,0,1.72,2.96,6.518,6.518,0,0,0,3.692.73,4.908,4.908,0,0,0,3.391-1.46,3.892,3.892,0,0,0,.889-3.49,5.156,5.156,0,0,0-.506-1.34l14.636,0.21a19.776,19.776,0,0,1,4.445,1.44c1.521,0.87,1.013,2.78-.856,2.75a3.123,3.123,0,0,0,3.612.19,2.336,2.336,0,0,0,1.3-3.07s2.884,1,4.214.25A2.37,2.37,0,0,0,863.972,5606.44Zm-299.815,1.77-1.034-.01a13.793,13.793,0,0,0,1.544-.52C564.487,5607.85,564.319,5608.03,564.157,5608.21Zm22.348,0.21-18.915-.16-2.756-.04c0.068-.07.129-0.15,0.2-0.21a10.646,10.646,0,0,1,2.83-1.84,30.827,30.827,0,0,1,6.483-2.32,35.527,35.527,0,0,1,13.689-.8,24.707,24.707,0,0,1,6.536,1.88,12.869,12.869,0,0,1,2.807,1.75,7.773,7.773,0,0,1,1.115,1.13,5.116,5.116,0,0,1,.434.66Zm37.832,0.14-23.68-.09a7.4,7.4,0,0,0-2.48-2.8,13.025,13.025,0,0,0-2.274-1.26c0.248,0.02.5,0.04,0.747,0.04a4.867,4.867,0,0,0,3.459-1.48l-0.017-.01a2,2,0,0,0,.556-1.37,2.051,2.051,0,0,0-4.1,0,2,2,0,0,0,.608,1.44,4.559,4.559,0,0,1-3.36-.49,4.055,4.055,0,0,1-1.8-2.21,3.555,3.555,0,0,1,.087-2.84,4.338,4.338,0,0,1,2.175-2.01,7.474,7.474,0,0,1,3.082-.57,15.777,15.777,0,0,1,6.207,1.6,45.732,45.732,0,0,1,5.631,3.25c1.833,1.18,3.733,2.27,5.673,3.28,0.457,0.23.929,0.43,1.393,0.65l-0.052.05a24.071,24.071,0,0,0,5.333,3.08,40.931,40.931,0,0,0,4.665,1.73Zm3.062-.17a39.431,39.431,0,0,1-6.343-2.73c0.966,0.33,1.942.64,2.93,0.9a31.035,31.035,0,0,0,2.966,1.03,36.6,36.6,0,0,0,4.748.94l-3.741.01C627.774,5608.49,627.584,5608.45,627.4,5608.39Zm11.73,1.21a11.617,11.617,0,0,1-5.89.18c-1.2-.19-2.388-0.46-3.565-0.76l10.568,0.04A6.323,6.323,0,0,1,639.129,5609.6Zm18.471-7.49c4.379-3.17,7.671-7.32,11.162-11.12a34.316,34.316,0,0,1,5.7-5.18,13.893,13.893,0,0,1,7.211-2.5,10.982,10.982,0,0,1,7.287,2.03,7.7,7.7,0,0,1,2.682,6.18,14.074,14.074,0,0,0-3.583-1.96c-3.588-1.37-7.634-.72-11.043.67-6.972,2.85-12.191,8.19-18.272,12.08a29.578,29.578,0,0,1-7.312,3.2A43.279,43.279,0,0,0,657.6,5602.11Zm35.632,9.44a10.5,10.5,0,0,1-4.588,2.34,15.005,15.005,0,0,1-10.255-.94,10.047,10.047,0,0,1-3.807-3.33c-0.087-.12-0.153-0.26-0.234-0.39l6.735,0.06L695,5609.5A12.433,12.433,0,0,1,693.232,5611.55Zm2.6-3.5-14.751.22-7.244.06c-0.144-.29-0.281-0.59-0.4-0.9,0.119,0.01.236,0.03,0.359,0.03a2.67,2.67,0,1,0-2.709-2.67,2.6,2.6,0,0,0,.259,1.12,15.019,15.019,0,0,0,.844,2.44l-10.025.08-18.977.06a40.6,40.6,0,0,0,5.779-1.25,41.637,41.637,0,0,0,10.118-4.4c4.523-2.91,8.774-6.26,13.337-8.95a25.284,25.284,0,0,1,8.744-1.86,13.908,13.908,0,0,1,4.716.58,6.431,6.431,0,0,1,3.636,2.89,5.733,5.733,0,0,1,.451,4.52,5.473,5.473,0,0,1-2.986,3.31,4.265,4.265,0,0,1-4.19-.12,3.688,3.688,0,0,1-1.144-1.4,2.256,2.256,0,0,0,2.335-1.46,2.218,2.218,0,0,0-1.365-2.85,2.266,2.266,0,0,0-2.89,1.35,2.118,2.118,0,0,0-.121.68H679.6c0,0.02.008,0.04,0.009,0.06a2.258,2.258,0,0,0,.112.7,5.32,5.32,0,0,0,2.5,3.81,5.125,5.125,0,0,0,5.076-.16,6.213,6.213,0,0,0,3.1-3.8,6.044,6.044,0,0,0-.686-4.74,7.44,7.44,0,0,0-3.714-3.07,13.254,13.254,0,0,0-4.827-.88,24.056,24.056,0,0,0-5.665.77c0.648-.32,1.3-0.64,1.965-0.92,3.255-1.39,6.938-2.05,10.325-.95a13.9,13.9,0,0,1,4.628,2.57,13.57,13.57,0,0,1,3.455,4.04,11.429,11.429,0,0,1,1.378,5.1,13.2,13.2,0,0,1-1.033,5.18C696.106,5607.52,695.968,5607.78,695.834,5608.05Zm15.2-22.71a10.985,10.985,0,0,1,7.287-2.03,13.893,13.893,0,0,1,7.211,2.5,34.276,34.276,0,0,1,5.7,5.18c3.492,3.8,6.783,7.95,11.163,11.12a43.269,43.269,0,0,0,6.163,3.4,29.555,29.555,0,0,1-7.311-3.2c-6.082-3.89-11.3-9.23-18.273-12.08-3.409-1.39-7.455-2.04-11.043-.67a14.074,14.074,0,0,0-3.583,1.96A7.7,7.7,0,0,1,711.034,5585.34Zm14.382,24.28a10.047,10.047,0,0,1-3.807,3.33,15,15,0,0,1-10.254.94,10.5,10.5,0,0,1-4.589-2.34A12.433,12.433,0,0,1,705,5609.5l13.913-.21,6.735-.06C725.569,5609.36,725.5,5609.5,725.416,5609.62Zm12.415-1.19-10.026-.08a15.019,15.019,0,0,0,.844-2.44,2.6,2.6,0,0,0,.259-1.12,2.709,2.709,0,1,0-2.709,2.67c0.123,0,.24-0.02.359-0.03-0.118.31-.255,0.61-0.4,0.9l-7.244-.06-14.751-.22c-0.134-.27-0.272-0.53-0.384-0.81a13.215,13.215,0,0,1-1.033-5.18,11.417,11.417,0,0,1,1.379-5.1,13.567,13.567,0,0,1,3.454-4.04,13.9,13.9,0,0,1,4.629-2.57c3.386-1.1,7.069-.44,10.324.95,0.667,0.28,1.317.6,1.965,0.92a24.056,24.056,0,0,0-5.665-.77,13.254,13.254,0,0,0-4.827.88,7.44,7.44,0,0,0-3.714,3.07,6.039,6.039,0,0,0-.685,4.74,6.208,6.208,0,0,0,3.1,3.8,5.125,5.125,0,0,0,5.076.16,5.32,5.32,0,0,0,2.5-3.81,2.2,2.2,0,0,0,.112-0.7c0-.02.008-0.04,0.009-0.06h-0.012a2.118,2.118,0,0,0-.121-0.68,2.266,2.266,0,0,0-2.89-1.35,2.218,2.218,0,0,0-1.365,2.85,2.256,2.256,0,0,0,2.335,1.46,3.688,3.688,0,0,1-1.144,1.4,4.265,4.265,0,0,1-4.19.12,5.473,5.473,0,0,1-2.986-3.31,5.742,5.742,0,0,1,.451-4.52,6.431,6.431,0,0,1,3.636-2.89,13.911,13.911,0,0,1,4.716-.58,25.294,25.294,0,0,1,8.745,1.86c4.562,2.69,8.813,6.04,13.336,8.95a41.627,41.627,0,0,0,10.119,4.4,40.585,40.585,0,0,0,5.778,1.25Zm28.928,1.35a11.617,11.617,0,0,1-5.89-.18,6.323,6.323,0,0,1-1.113-.54l10.569-.04C769.147,5609.32,767.961,5609.59,766.759,5609.78Zm5.28-1.24-3.741-.01a36.651,36.651,0,0,0,4.749-.94,31.017,31.017,0,0,0,2.965-1.03c0.988-.26,1.964-0.57,2.93-0.9a39.354,39.354,0,0,1-6.343,2.73C772.414,5608.45,772.224,5608.49,772.039,5608.54Zm27.3-.07-23.679.09-1.851-.01a40.931,40.931,0,0,0,4.665-1.73,24.1,24.1,0,0,0,5.334-3.08l-0.053-.05c0.464-.22.936-0.42,1.394-0.65,1.939-1.01,3.839-2.1,5.672-3.28a45.732,45.732,0,0,1,5.631-3.25,15.777,15.777,0,0,1,6.207-1.6,7.474,7.474,0,0,1,3.082.57,4.344,4.344,0,0,1,2.176,2.01,3.559,3.559,0,0,1,.086,2.84,4.055,4.055,0,0,1-1.8,2.21,4.557,4.557,0,0,1-3.359.49,2.006,2.006,0,0,0,.607-1.44,2.05,2.05,0,0,0-4.1,0,2,2,0,0,0,.555,1.37l-0.017.01a4.867,4.867,0,0,0,3.46,1.48c0.25,0,.5-0.02.746-0.04a13.025,13.025,0,0,0-2.274,1.26A7.4,7.4,0,0,0,799.341,5608.47Zm33.067-.21-18.915.16-12.423.05a5.116,5.116,0,0,1,.434-0.66,7.824,7.824,0,0,1,1.115-1.13,12.893,12.893,0,0,1,2.807-1.75,24.707,24.707,0,0,1,6.536-1.88,35.526,35.526,0,0,1,13.689.8,30.807,30.807,0,0,1,6.483,2.32,10.646,10.646,0,0,1,2.83,1.84c0.071,0.06.132,0.14,0.2,0.21Zm3.433-.05c-0.162-.18-0.329-0.36-0.51-0.53a13.793,13.793,0,0,0,1.544.52Z" transform="translate(-534 -5582.94)"/>
</svg>
